<?xml version="1.0" encoding="iso-8859-1"?>
<!-- Generator: Adobe Illustrator 19.0.0, SVG Export Plug-In . SVG Version: 6.00 Build 0)  -->
<svg version="1.1" id="Capa_1" xmlns="http://www.w3.org/2000/svg" xmlns:xlink="http://www.w3.org/1999/xlink" x="0px" y="0px"
	 viewBox="0 0 512 512" style="enable-background:new 0 0 512 512;" xml:space="preserve">
<g>
	<g>
		<g>
			<path d="M373.333,298.668c58.813,0,106.667-47.892,106.667-106.75c0-55.022-88.083-174.439-98.125-187.866
				c-4.042-5.4-13.042-5.4-17.083,0c-10.042,13.427-98.125,132.844-98.125,187.866C266.667,250.776,314.521,298.668,373.333,298.668
				z M320,181.242c5.896,0,10.667,4.775,10.667,10.675c0,23.55,19.146,42.7,42.667,42.7c5.896,0,10.667,4.775,10.667,10.675
				c0,5.901-4.771,10.675-10.667,10.675c-35.292,0-64-28.731-64-64.05C309.333,186.017,314.104,181.242,320,181.242z"/>
			<path d="M99.625,294.915L12.75,277.54c-3.104-0.625-6.375,0.188-8.854,2.208C1.438,281.78,0,284.801,0,287.999v170.667
				c0,5.896,4.771,10.667,10.667,10.667H77.5c15.833,0,29.458-11.813,31.688-27.469l15.854-111.042
				C127.438,314.009,116.292,298.238,99.625,294.915z"/>
			<path d="M448,373.332c-15.349,0-42.84,6.306-65.013,12.139c0.477,3.009,1.013,6,1.013,9.194c0,16.135-7.104,30.302-19.979,39.917
				c-12.479,9.313-28.5,13.656-50.417,13.656c-28.813,0-68.063-7.49-120.021-22.885c-5.667-1.677-8.875-7.615-7.208-13.26
				c1.688-5.635,7.646-8.875,13.25-7.198c49.292,14.604,87.625,22.01,113.979,22.01c22.438,0,32.25-5.375,37.667-9.427
				c7.458-5.563,11.396-13.448,11.396-22.813c0-1.789-0.326-3.4-0.552-5.068c-4.038-29.449-42.814-39.964-82.656-48.057
				c-18.5-3.75-32.271-10.385-45.583-16.813c-16.417-7.917-31.917-15.396-52.542-15.396c-8.167,0-16.792,0.594-25.646,1.76
				c-5.604,0.74-9.667,5.719-9.25,11.365c0.313,4.146,0.229,7.865-0.292,11.385l-15.854,111.073c-0.146,1-0.438,1.938-0.688,2.885
				c-0.021,0.094-0.542,2.052-0.563,2.135c-1.229,5.01,1.292,10.188,6,12.292c50.75,22.708,118.5,49.771,152.958,49.771
				c41.375,0,126.563-41.875,182.917-69.583c14.688-7.219,26.833-13.198,34.708-16.646c3.875-1.708,6.375-5.542,6.375-9.771
				C512,390.874,485.688,373.332,448,373.332z"/>
		</g>
	</g>
</g>
<g>
</g>
<g>
</g>
<g>
</g>
<g>
</g>
<g>
</g>
<g>
</g>
<g>
</g>
<g>
</g>
<g>
</g>
<g>
</g>
<g>
</g>
<g>
</g>
<g>
</g>
<g>
</g>
<g>
</g>
</svg>
