<?xml version="1.0" encoding="iso-8859-1"?>
<!-- Generator: Adobe Illustrator 19.0.0, SVG Export Plug-In . SVG Version: 6.00 Build 0)  -->
<svg version="1.1" id="Capa_1" xmlns="http://www.w3.org/2000/svg" xmlns:xlink="http://www.w3.org/1999/xlink" x="0px" y="0px"
	 viewBox="0 0 512.036 512.036" style="enable-background:new 0 0 512.036 512.036;" xml:space="preserve">
<g>
	<g>
		<path d="M503.485,196.551L268.818,25.885c-8.533-6.4-17.067-6.4-25.6,0L8.551,196.551c-17.067,10.667-6.4,38.4,12.8,38.4h42.667
			v234.667c0,12.8,8.533,21.333,21.333,21.333h341.333c12.8,0,21.333-8.533,21.333-21.333V234.951h42.667
			C509.885,234.951,520.551,207.218,503.485,196.551z M256.018,448.285c-70.4,0-128-57.6-128-128s57.6-128,128-128s128,57.6,128,128
			S326.418,448.285,256.018,448.285z"/>
	</g>
</g>
<g>
	<g>
		<polygon points="288.018,288.285 288.018,224.285 224.018,224.285 224.018,288.285 160.018,288.285 160.018,352.285 
			224.018,352.285 224.018,416.285 288.018,416.285 288.018,352.285 352.018,352.285 352.018,288.285 		"/>
	</g>
</g>
<g>
</g>
<g>
</g>
<g>
</g>
<g>
</g>
<g>
</g>
<g>
</g>
<g>
</g>
<g>
</g>
<g>
</g>
<g>
</g>
<g>
</g>
<g>
</g>
<g>
</g>
<g>
</g>
<g>
</g>
</svg>
