<?xml version="1.0" encoding="iso-8859-1"?>
<!-- Generator: Adobe Illustrator 16.0.0, SVG Export Plug-In . SVG Version: 6.00 Build 0)  -->
<!DOCTYPE svg PUBLIC "-//W3C//DTD SVG 1.1//EN" "http://www.w3.org/Graphics/SVG/1.1/DTD/svg11.dtd">
<svg version="1.1" id="Capa_1" xmlns="http://www.w3.org/2000/svg" xmlns:xlink="http://www.w3.org/1999/xlink" x="0px" y="0px"
	 width="484.814px" height="484.814px" viewBox="0 0 484.814 484.814" style="enable-background:new 0 0 484.814 484.814;"
	 xml:space="preserve">
<g>
	<g id="Layer_2_44_">
		<g>
			<path d="M147.937,344.352c-7.859,0-14.228,6.375-14.228,14.229c0,7.855,6.368,14.229,14.228,14.229
				c7.857,0,14.225-6.373,14.225-14.229C162.161,350.727,155.794,344.352,147.937,344.352z"/>
			<path d="M373.898,332.414c-16.762-6.044-30.195-12.256-41.078-19.016c-1.912-1.28-2.59-1.438-4.26-2.358
				c-6.137-3.383-12.02-0.59-13.711,1.563c-0.467,0.594-0.943,1.186-1.43,1.775c-12.75,14.913-54.729,32.975-54.744,32.979
				c-3.285,0.898-5.703,3.896-5.703,7.468c0,0.006,0,0.013,0,0.013l-0.002,0.008l0.146,51.587c0,31.793-25.656,57.656-57.157,57.656
				c-31.563,0-57.242-25.863-57.242-57.656v-21.589c-10.882-3.775-18.706-14.092-18.706-26.263
				c0-15.366,12.457-27.825,27.825-27.825c15.365,0,27.823,12.459,27.823,27.825c0,11.903-7.489,22.034-18.003,26.008v20.877
				c0,22.528,17.158,40.875,38.281,40.875c21.088,0,38.268-18.347,38.268-40.875l0.099-50.294l0.001-0.014
				c0-0.005-0.001-0.009-0.001-0.014l0.001-0.325c0,0-0.011-0.025-0.02-0.048c-0.159-3.213-2.543-5.594-5.171-6.922
				c-0.033-0.017-44.73-22.312-57.838-38.996c-1.691-2.152-7.573-4.945-13.71-1.563c-11.44,6.306-26.995,11.507-46.654,18.597
				c-60.62,21.854-78.094,44.147-78.094,59.353c0,15.179,0,99.575,0,99.575h209.436h0.305h209.437c0,0,0-84.396,0-99.575
				C451.994,370.035,434.523,354.268,373.898,332.414z"/>
			<path d="M143.533,146.218c3.119,40.98,19.417,23.318,22.778,41.27c6.613,35.324,20.119,36.678,24.861,48.836
				c1.064,2.734,1.689,15.803,1.689,20.143c0,14.541-0.796,22.244-6.487,29.627c-1.292,1.676-3.469,7.148-0.686,11.299
				c12.588,18.771,36.885,34.552,59.717,34.845c22.832-0.293,47.128-16.072,59.718-34.845c2.781-4.149,0.604-9.622-0.688-11.299
				c-5.689-7.383-6.488-15.086-6.488-29.627c0-4.34,0.625-17.408,1.689-20.143c4.742-12.158,18.248-13.512,24.861-48.836
				c3.361-17.951,19.66-0.289,22.779-41.27c0-16.332-8.898-20.393-8.898-20.393s4.523-24.17,6.295-42.768
				C346.869,59.875,331.143,0,247.264,0c-0.305,0-1.319,0-1.858,0c-0.541,0-1.556,0-1.861,0c-83.877,0-99.605,59.875-97.41,83.057
				c1.772,18.598,6.295,42.768,6.295,42.768S143.533,129.886,143.533,146.218z"/>
		</g>
	</g>
</g>
<g>
</g>
<g>
</g>
<g>
</g>
<g>
</g>
<g>
</g>
<g>
</g>
<g>
</g>
<g>
</g>
<g>
</g>
<g>
</g>
<g>
</g>
<g>
</g>
<g>
</g>
<g>
</g>
<g>
</g>
</svg>
