<svg height="458pt" viewBox="0 -41 458.21068 458" width="458pt" xmlns="http://www.w3.org/2000/svg"><path d="m149 217.105469v-50h-35v50c0 3.867187-3.132812 7-7 7h-49v32h49c3.867188 0 7 3.132812 7 7v50h35v-50c0-3.867188 3.132812-7 7-7h50v-32h-50c-3.867188 0-7-3.132813-7-7zm0 0"/><path d="m221.398438 108.675781c-2.664063-1.058593-4.410157-3.640625-4.398438-6.511719v-27.058593h-171v27.054687c0 2.859375-1.765625 4.945313-4.417969 6.945313h-.027343c-24.917969 10-41.554688 34.699219-41.554688 62.136719v174.851562c-.03125 16.542969 13.355469 29.980469 29.898438 30.011719h202.9375c16.597656-.019531 30.070312-13.433594 30.164062-30.03125v-174.828125c0-27.59375-16.699219-52.742188-41.601562-62.570313zm-1.398438 154.429688c0 3.867187-3.132812 7-7 7h-50v50c0 3.867187-3.132812 7-7 7h-49c-3.867188 0-7-3.132813-7-7v-50h-49c-3.867188 0-7-3.132813-7-7v-46c0-3.867188 3.132812-7 7-7h49v-50c0-3.867188 3.132812-7 7-7h49c3.867188 0 7 3.132812 7 7v50h50c3.867188 0 7 3.132812 7 7zm0 0"/><path d="m37 .105469h189v61h-189zm0 0"/><path d="m426.222656 321.105469h-43.222656v55h43.222656c15.1875 0 27.5-12.3125 27.5-27.5s-12.3125-27.5-27.5-27.5zm0 0"/><path d="m440.144531 275.328125-40.402343-14.8125-17.082032 46.589844h43.5625c9.878906-.003907 19.429688 3.527343 26.929688 9.953125 4.953125-6.992188 6.363281-15.898438 3.8125-24.082032-2.550782-8.179687-8.769532-14.707031-16.820313-17.648437zm0 0"/><path d="m311.738281 278.324219c3.054688 6.636719 8.636719 11.773437 15.503907 14.269531l39.597656 14.511719h.910156l18.851562-51.410157-40.402343-14.804687c-10.457031-3.835937-22.191407-.992187-29.734375 7.203125-7.546875 8.195312-9.410156 20.125-4.726563 30.230469zm13.515625-.636719c1.332032-3.628906 5.351563-5.492188 8.984375-4.164062l31.949219 11.714843c2.367188.84375 4.097656 2.898438 4.535156 5.371094.4375 2.476563-.484375 4.996094-2.421875 6.605469-1.933593 1.605468-4.578125 2.050781-6.933593 1.167968l-31.949219-11.714843c-3.628907-1.332031-5.492188-5.351563-4.164063-8.980469zm0 0"/><path d="m298.628906 348.605469c.023438 15.195312 12.34375 27.5 27.539063 27.5h42.832031v-55h-42.832031c-15.195313 0-27.515625 12.304687-27.539063 27.5zm68.570313 14.5c0 3.867187-3.132813 7-7 7h-34.03125c-3.867188 0-7-3.132813-7-7 0-3.867188 3.132812-7 7-7h34.03125c3.867187 0 7 3.132812 7 7zm0 0"/></svg>